<svg width="1500" height="341" version="1.1" xmlns="http://www.w3.org/2000/svg" desc="Created with imagetracer.js version 1.2.6"><path fill="rgb(255,255,255)" stroke="rgb(255,255,255)" stroke-width="1" opacity="1" d="M 48.5 67 L 204 67.5 L 48.5 68 L 48.5 67 Z "></path><path fill="rgb(255,255,255)" stroke="rgb(255,255,255)" stroke-width="1" opacity="1" d="M 206.5 67 L 251 67.5 L 206.5 68 L 206.5 67 Z "></path><path fill="rgb(255,255,255)" stroke="rgb(255,255,255)" stroke-width="1" opacity="1" d="M 533 68 L 641.5 68 L 642.5 69 L 657.5 70 L 679.5 79 L 689 87.5 L 697 102.5 L 699 112.5 L 699 125.5 L 696 138.5 L 685.5 152 L 672.5 160 L 656 165.5 L 659.5 167 L 671.5 168 L 679.5 171 Q 688.3 174.3 694 180.5 Q 693.3 182.8 695.5 182 Q 701.8 188.8 705 198.5 Q 703.8 203.2 706 204.5 L 706 222.5 L 704 231.5 L 695.5 246 Q 693.3 245.3 694 247.5 Q 687.6 255.6 677.5 260 L 667.5 264 L 659.5 266 L 653.5 266 L 648.5 268 L 637.5 268 L 636.5 269 L 533 269 L 532 256.5 L 533 255.5 L 533 80.5 L 532 76.5 L 533 75.5 L 533 68 Z M 582 104 L 580 106 L 580 145 L 579 146 L 583 148 L 585 148 L 624 148 L 625 147 L 633 147 L 641 144 Q 648 139 650 129 L 647 114 Q 643 107 634 105 Q 628 107 627 104 L 582 104 Z M 582 184 L 580 186 L 580 224 L 581 225 L 580 230 L 581 232 L 635 232 L 643 230 L 650 226 L 656 217 L 656 199 L 653 192 L 650 188 L 640 184 L 582 184 Z "></path><path fill="rgb(255,255,255)" stroke="rgb(255,255,255)" stroke-width="1" opacity="1" d="M 290.5 114 L 295 114.5 L 290.5 115 L 290.5 114 Z "></path><path fill="rgb(255,255,255)" stroke="rgb(255,255,255)" stroke-width="1" opacity="1" d="M 420.5 114 L 424 114.5 L 420.5 115 L 420.5 114 Z "></path><path fill="rgb(255,255,255)" stroke="rgb(255,255,255)" stroke-width="1" opacity="1" d="M 1013.5 115 L 1027.5 115 L 1048.5 119 L 1059.5 124 L 1072 133 L 1073.5 136 Q 1075.8 135.3 1075 137.5 L 1080 143.5 L 1089 162.5 L 1094 184.5 L 1095 199.5 L 1094 203 L 992.5 203 L 991.5 202 L 991 211.5 L 995 224.5 L 1002.5 234 L 1016.5 241 L 1031.5 241 L 1040 239 Q 1038.9 236.3 1041.5 237 L 1050 231 L 1061.5 215 L 1090.5 231 L 1093 231 Q 1087.5 246.5 1074.5 256 L 1064 262 Q 1065.3 265 1061.5 264 L 1047.5 270 L 1032.5 273 L 1030.5 273 L 1013.5 273 L 996.5 270 L 978.5 262 L 968 254 L 960 243.5 L 951 224.5 Q 953.5 223 950 221.5 L 947 205.5 L 947 192.5 L 948 191.5 L 948 182.5 L 951 166.5 L 954 160.5 L 954 157 L 931.5 160 L 922.5 163 L 915 169.5 L 912 178.5 L 912 269 L 869.5 269 L 869 268.5 L 869 120.5 L 870.5 119 L 912 119 L 912 132.5 L 913.5 134 L 920 130 Q 918.8 127 922.5 128 L 934.5 122 L 938.5 122 L 946.5 119 L 952.5 119 L 954 120.5 L 954 154.5 L 955.5 156 Q 960.2 143.7 968.5 135 Q 970.8 135.8 970 133.5 Q 978.6 124.6 991.5 120 L 1013.5 115 Z M 1020 146 L 1010 148 L 1003 152 L 996 159 L 990 173 L 991 176 L 1051 176 L 1050 166 L 1043 155 L 1030 147 L 1020 146 Z "></path><path fill="rgb(255,255,255)" stroke="rgb(255,255,255)" stroke-width="1" opacity="1" d="M 1157.5 115 L 1187.5 116 L 1188.5 117 L 1199.5 118 L 1207.5 122 Q 1209 119.5 1210.5 123 Q 1219.8 126.2 1225 133.5 L 1229 140.5 L 1232 151.5 L 1232 252.5 L 1235 269 L 1196.5 269 L 1195 267.5 L 1193 256.5 Q 1195.3 255.2 1192.5 254 Q 1176.3 273.3 1140.5 273 L 1122.5 269 L 1104 256 L 1104 253.5 L 1100 247.5 L 1097 236.5 L 1097 219.5 L 1100 208.5 L 1111.5 194 L 1115 193 Q 1113.9 190.3 1116.5 191 L 1123.5 186 L 1142.5 179 L 1146.5 179 L 1154.5 176 L 1191 171 Q 1189.3 167.6 1190 160.5 L 1191 157.5 L 1188 148.5 L 1184.5 145 L 1177.5 142 L 1166.5 141 L 1152 145 L 1152 147 Q 1149.3 145.9 1150 148.5 L 1147 152.5 Q 1147 159 1143.5 162 L 1104.5 162 L 1104 160.5 L 1104 158.5 L 1105 147.5 Q 1108.2 145.7 1108 140.5 L 1120.5 126 L 1134.5 119 L 1157.5 115 Z M 1189 195 L 1176 200 L 1153 206 L 1142 212 L 1138 221 Q 1137 230 1141 235 Q 1145 240 1153 241 L 1168 241 L 1179 236 L 1186 228 L 1190 217 Q 1189 211 1191 210 L 1190 201 L 1190 199 L 1191 196 L 1189 195 Z "></path><path fill="rgb(255,255,255)" stroke="rgb(255,255,255)" stroke-width="1" opacity="1" d="M 717 119 L 760 119 L 760 223.5 Q 761.5 231.1 766.5 235 Q 773.8 240.3 788.5 238 Q 797.6 236.1 802 229.5 L 806 220.5 L 806 120.5 L 807.5 119 L 848.5 119 L 849 119.5 L 849 269 L 806.5 269 L 806 268.5 L 806 257.5 L 803 257 L 801.5 260 L 795.5 264 Q 787.5 269.5 776.5 272 Q 771.8 270.8 770.5 273 L 752.5 273 L 737.5 269 L 724 257.5 Q 724.7 254.9 722 256 L 722 253.5 L 720 251.5 L 717 239.5 L 716 192.5 L 717 191.5 L 717 119 Z "></path><path fill="rgb(255,255,255)" stroke="rgb(255,255,255)" stroke-width="1" opacity="1" d="M 1253 119 L 1296 119 L 1296 223.5 L 1298 230.5 L 1302.5 235 Q 1309.8 240.3 1324.5 238 Q 1333.8 236.3 1338 229.5 L 1342 220.5 L 1342 119 L 1384.5 119 L 1385 119.5 L 1385 263.5 L 1385 265.5 L 1384.5 269 L 1342 269 L 1342 257.5 L 1340.5 257 L 1333 262 Q 1334.1 264.7 1331.5 264 L 1324.5 268 L 1312.5 272 Q 1307.8 270.8 1306.5 273 L 1288.5 273 L 1274.5 269 L 1263 262 Q 1255.8 253.9 1253 240.5 L 1253 119 Z "></path><path fill="rgb(255,255,255)" stroke="rgb(255,255,255)" stroke-width="1" opacity="1" d="M 372.5 131 L 370.5 134 L 372.5 131 Z "></path><path fill="rgb(255,255,255)" stroke="rgb(255,255,255)" stroke-width="1" opacity="1" d="M 367.5 136 L 366.5 138 L 367.5 136 Z "></path><path fill="rgb(255,255,255)" stroke="rgb(255,255,255)" stroke-width="1" opacity="1" d="M 476.5 137 L 477.5 139 L 476.5 137 Z "></path><path fill="rgb(255,255,255)" stroke="rgb(255,255,255)" stroke-width="1" opacity="1" d="M 286.5 154 L 289.5 158 L 286.5 154 Z "></path><path fill="rgb(255,255,255)" stroke="rgb(255,255,255)" stroke-width="1" opacity="1" d="M 295.5 174 L 296 257.5 L 295 257.5 L 295.5 174 Z "></path><path fill="rgb(255,255,255)" stroke="rgb(255,255,255)" stroke-width="1" opacity="1" d="M 347.5 192 L 348 201.5 L 347 201.5 L 347.5 192 Z "></path><path fill="rgb(255,255,255)" stroke="rgb(255,255,255)" stroke-width="1" opacity="1" d="M 489.5 241 L 488.5 243 L 489.5 241 Z "></path><path fill="rgb(255,255,255)" stroke="rgb(255,255,255)" stroke-width="1" opacity="1" d="M 485.5 246 L 484.5 248 L 485.5 246 Z "></path><path fill="rgb(255,255,255)" stroke="rgb(255,255,255)" stroke-width="1" opacity="1" d="M 295.5 261 L 296 269 L 336 269.5 L 296.5 270 L 295 268.5 L 295.5 261 Z "></path><path fill="rgb(255,255,255)" stroke="rgb(255,255,255)" stroke-width="1" opacity="1" d="M 151.5 268 L 150.5 270 L 145 269.5 L 151.5 268 Z "></path><path fill="rgb(255,255,255)" stroke="rgb(255,255,255)" stroke-width="1" opacity="1" d="M 104.5 269 L 144 269.5 L 104.5 270 L 104.5 269 Z "></path><path fill="rgb(255,255,255)" stroke="rgb(255,255,255)" stroke-width="1" opacity="1" d="M 206.5 269 L 250 269.5 L 206.5 270 L 206.5 269 Z "></path><path fill="rgb(255,255,255)" stroke="rgb(255,255,255)" stroke-width="1" opacity="1" d="M 337.5 269 L 340 269.5 L 337.5 270 L 337.5 269 Z "></path><path fill="rgb(255,255,255)" stroke="rgb(255,255,255)" stroke-width="1" opacity="1" d="M 1411.5 269 L 1414 269.5 L 1411.5 270 L 1411.5 269 Z "></path><path fill="rgb(255,255,255)" stroke="rgb(255,255,255)" stroke-width="1" opacity="1" d="M 1415.5 269 L 1448 269.5 L 1415.5 270 L 1415.5 269 Z "></path><path fill="rgb(255,255,255)" stroke="rgb(255,255,255)" stroke-width="1" opacity="1" d="M 418.5 273 L 426 273.5 L 418.5 274 L 418.5 273 Z "></path><path fill="rgb(0,0,0)" stroke="rgb(0,0,0)" stroke-width="1" opacity="0" d="M 0 0 L 1499.5 0 L 1500 0.5 L 1500 341 L 0.5 341 L 0 340.5 L 0 0 Z M 49 67 L 47 69 L 47 106 L 49 107 L 100 107 L 100 108 L 100 270 L 152 270 L 152 108 L 153 107 L 205 107 L 205 70 L 206 70 L 206 113 L 205 114 L 205 144 L 206 145 Q 208 151 205 153 L 205 176 L 206 177 Q 208 183 205 185 L 205 256 L 206 257 L 205 260 L 206 265 L 205 269 L 207 270 L 251 270 L 251 179 L 253 168 L 256 161 Q 260 153 270 151 Q 281 150 287 155 Q 293 161 295 172 L 295 270 L 340 270 L 341 269 L 341 160 L 338 143 L 331 130 L 319 119 L 301 114 Q 266 113 252 131 L 251 67 L 207 67 L 206 68 L 205 67 L 49 67 Z M 533 68 L 533 76 L 532 77 L 533 81 L 533 256 L 532 257 L 533 269 L 637 269 L 638 268 L 649 268 L 654 266 L 660 266 L 668 264 L 678 260 Q 688 256 694 248 Q 693 245 696 246 L 704 232 L 706 223 L 706 205 Q 704 203 705 199 Q 702 189 696 182 Q 693 183 694 181 Q 688 174 680 171 L 672 168 L 660 167 L 656 166 L 673 160 L 686 152 L 696 139 L 699 126 L 699 113 L 697 103 L 689 88 L 680 79 L 658 70 L 643 69 L 642 68 L 533 68 Z M 413 114 L 392 119 L 376 128 Q 362 139 354 157 L 349 174 L 348 189 L 347 190 L 347 206 L 348 207 L 349 220 L 356 239 L 362 248 Q 370 257 381 264 L 397 271 L 413 274 L 433 274 L 453 270 Q 468 265 479 255 Q 490 246 495 232 L 466 215 L 462 214 L 448 232 L 434 240 L 417 240 L 407 235 L 397 225 L 393 213 L 393 204 L 496 204 L 497 203 L 496 202 L 496 186 L 492 166 Q 487 149 477 137 Q 458 112 413 114 Z M 1014 115 L 992 120 Q 979 125 970 134 Q 971 136 969 135 Q 960 144 956 156 L 954 155 L 954 121 L 953 119 L 947 119 L 939 122 L 935 122 L 923 128 Q 919 127 920 130 L 914 134 L 912 133 L 912 119 L 871 119 L 869 121 L 869 269 L 870 269 L 912 269 L 912 179 L 915 170 L 923 163 L 932 160 L 954 157 L 954 161 L 951 167 L 948 183 L 948 192 L 947 193 L 947 206 L 950 222 Q 953 223 951 225 L 960 244 L 968 254 L 979 262 L 997 270 L 1014 273 L 1031 273 L 1033 273 L 1048 270 L 1062 264 Q 1065 265 1064 262 L 1075 256 Q 1087 247 1093 231 L 1091 231 L 1062 215 L 1050 231 L 1040 237 L 1041 240 L 1040 239 L 1032 241 L 1017 241 L 1003 234 L 995 225 L 991 212 L 992 202 L 993 203 L 1094 203 L 1095 200 L 1094 185 L 1089 163 L 1080 144 L 1075 138 Q 1076 135 1074 136 L 1072 133 L 1060 124 L 1049 119 L 1028 115 L 1014 115 Z M 1158 115 L 1135 119 L 1121 126 L 1108 141 Q 1108 146 1105 148 L 1104 159 L 1104 161 L 1105 162 L 1144 162 Q 1147 159 1147 153 L 1150 149 Q 1149 146 1152 147 L 1152 145 L 1167 141 L 1178 142 L 1185 145 L 1188 149 L 1191 158 L 1190 161 Q 1189 168 1191 171 L 1155 176 L 1147 179 L 1143 179 L 1119 189 Q 1116 190 1118 192 L 1117 191 Q 1114 190 1115 193 L 1112 194 L 1100 209 L 1097 220 L 1097 237 L 1100 248 L 1104 254 L 1104 256 L 1123 269 L 1141 273 Q 1176 273 1193 254 Q 1195 255 1193 257 L 1195 268 L 1197 269 L 1235 269 L 1232 253 L 1232 152 L 1229 141 L 1225 134 Q 1220 126 1211 123 Q 1209 119 1208 122 L 1200 118 L 1189 117 L 1188 116 L 1158 115 Z M 717 119 L 717 192 L 716 193 L 717 240 L 720 252 L 722 254 L 722 256 Q 725 255 724 258 L 738 269 L 753 273 L 771 273 Q 772 271 777 272 Q 788 270 796 264 L 802 260 L 803 257 L 806 258 L 806 269 L 807 269 L 849 269 L 849 120 L 849 119 L 808 119 L 806 121 L 806 221 L 802 230 Q 798 236 789 238 Q 774 240 767 235 Q 761 231 760 224 L 760 119 L 717 119 Z M 1253 119 L 1253 241 Q 1256 254 1263 262 L 1275 269 L 1289 273 L 1307 273 Q 1308 271 1313 272 L 1325 268 L 1332 264 Q 1334 265 1333 262 L 1341 257 L 1342 258 L 1342 269 L 1385 269 L 1385 266 L 1385 264 L 1385 120 L 1385 119 L 1342 119 L 1342 221 L 1338 230 Q 1334 236 1325 238 Q 1310 240 1303 235 L 1298 231 L 1296 224 L 1296 119 L 1253 119 Z M 1411 224 L 1407 225 L 1407 269 L 1409 270 L 1453 270 L 1453 226 L 1450 224 L 1445 225 Q 1440 226 1439 224 L 1411 224 Z "></path><path fill="rgb(0,0,0)" stroke="rgb(0,0,0)" stroke-width="1" opacity="0" d="M 581.5 104 L 626.5 104 Q 628 106.5 633.5 105 Q 642.8 106.8 647 113.5 L 650 128.5 Q 648.4 139.4 640.5 144 L 632.5 147 L 624.5 147 L 623.5 148 L 584.5 148 L 582.5 148 L 579 145.5 L 580 144.5 L 580 105.5 L 581.5 104 Z "></path><path fill="rgb(0,0,0)" stroke="rgb(0,0,0)" stroke-width="1" opacity="0" d="M 1019.5 146 L 1029.5 147 L 1043 154.5 L 1050 165.5 L 1051 176 L 990.5 176 L 990 172.5 L 996 158.5 L 1002.5 152 L 1009.5 148 L 1019.5 146 Z "></path><path fill="rgb(0,0,0)" stroke="rgb(0,0,0)" stroke-width="1" opacity="0" d="M 414.5 148 Q 435.8 145.8 444 156.5 Q 450.5 163.3 451 175 L 392.5 175 L 392 173.5 Q 394.6 159.6 404.5 153 L 414.5 148 Z "></path><path fill="rgb(0,0,0)" stroke="rgb(0,0,0)" stroke-width="1" opacity="0" d="M 581.5 184 L 639.5 184 L 649.5 188 L 653 191.5 L 656 198.5 L 656 216.5 L 649.5 226 L 642.5 230 L 634.5 232 L 581 232 L 580 229.5 L 581 224.5 L 580 223.5 L 580 185.5 L 581.5 184 Z "></path><path fill="rgb(0,0,0)" stroke="rgb(0,0,0)" stroke-width="1" opacity="0" d="M 1188.5 195 L 1191 196 L 1190 198.5 L 1190 200.5 L 1191 209.5 Q 1188.5 211 1190 216.5 L 1186 227.5 L 1178.5 236 L 1167.5 241 L 1152.5 241 Q 1144.7 239.8 1141 234.5 Q 1137 230 1138 220.5 L 1142 212 L 1152.5 206 L 1175.5 200 L 1188.5 195 Z "></path><path fill="rgb(141,123,54)" stroke="rgb(141,123,54)" stroke-width="1" opacity="1" d="M 204.5 67 L 207 68 L 207 268.5 L 205 269 L 206 264.5 L 205 259.5 L 206 256.5 L 205 255.5 L 205 184.5 Q 207.8 182.8 206 176.5 L 205 175.5 L 205 152.5 Q 207.8 150.8 206 144.5 L 205 143.5 L 205 113.5 L 206 112.5 L 206 69.5 L 205 69.5 L 205 107 L 152.5 107 L 152 107.5 L 152 267.5 L 151 267.5 L 151 106.5 L 151.5 106 L 204 106 L 204.5 67 Z "></path><path fill="rgb(141,123,54)" stroke="rgb(141,123,54)" stroke-width="1" opacity="1" d="M 47.5 68 L 48 106 L 100.5 106 L 101 106.5 L 101 267.5 Q 103.3 268.8 100.5 270 L 100 107 L 48.5 107 L 47 105.5 L 47.5 68 Z "></path><path fill="rgb(141,123,54)" stroke="rgb(141,123,54)" stroke-width="1" opacity="1" d="M 250.5 68 L 251.5 131 L 258 125.5 L 255.5 129 Q 253.3 128.3 254 130.5 L 250 133 L 250.5 68 Z "></path><path fill="rgb(141,123,54)" stroke="rgb(141,123,54)" stroke-width="1" opacity="1" d="M 285.5 114 L 290 114.5 L 275.5 118 L 276.5 116 L 285.5 114 Z "></path><path fill="rgb(141,123,54)" stroke="rgb(141,123,54)" stroke-width="1" opacity="1" d="M 295.5 114 Q 301.3 113.3 304 115.5 L 300.5 116 L 295.5 115 L 295.5 114 Z "></path><path fill="rgb(141,123,54)" stroke="rgb(141,123,54)" stroke-width="1" opacity="1" d="M 412.5 114 L 420 114.5 L 403.5 117 L 403.5 116 L 412.5 114 Z "></path><path fill="rgb(141,123,54)" stroke="rgb(141,123,54)" stroke-width="1" opacity="1" d="M 424.5 114 Q 431.5 112.9 435 115.5 L 431.5 116 Q 430 113.5 424.5 115 L 424.5 114 Z "></path><path fill="rgb(141,123,54)" stroke="rgb(141,123,54)" stroke-width="1" opacity="1" d="M 305.5 115 Q 313 115.5 317 119.5 L 315.5 119 L 306.5 117 L 305.5 115 Z "></path><path fill="rgb(141,123,54)" stroke="rgb(141,123,54)" stroke-width="1" opacity="1" d="M 436.5 115 L 441 116.5 L 437.5 117 L 436.5 115 Z "></path><path fill="rgb(141,123,54)" stroke="rgb(141,123,54)" stroke-width="1" opacity="1" d="M 400.5 116 L 402 116.5 L 399.5 118 L 400.5 116 Z "></path><path fill="rgb(141,123,54)" stroke="rgb(141,123,54)" stroke-width="1" opacity="1" d="M 442 116 L 451 119.5 L 449.5 119 L 442 118 L 442 116 Z "></path><path fill="rgb(141,123,54)" stroke="rgb(141,123,54)" stroke-width="1" opacity="1" d="M 273.5 117 L 274 119 Q 266.7 119.3 262.5 124 L 262 122 L 273.5 117 Z "></path><path fill="rgb(141,123,54)" stroke="rgb(141,123,54)" stroke-width="1" opacity="1" d="M 397.5 117 L 398 119 L 396 118.5 L 397.5 117 Z "></path><path fill="rgb(141,123,54)" stroke="rgb(141,123,54)" stroke-width="1" opacity="1" d="M 394.5 118 L 393.5 120 L 394.5 118 Z "></path><path fill="rgb(141,123,54)" stroke="rgb(141,123,54)" stroke-width="1" opacity="1" d="M 318.5 119 L 331 129.5 L 330.5 131 L 325.5 126 L 324 126.5 Q 326.7 124.7 322.5 123 L 318 121 L 318.5 119 Z "></path><path fill="rgb(141,123,54)" stroke="rgb(141,123,54)" stroke-width="1" opacity="1" d="M 391.5 119 L 390.5 121 L 388.5 122 L 389.5 120 L 391.5 119 Z "></path><path fill="rgb(141,123,54)" stroke="rgb(141,123,54)" stroke-width="1" opacity="1" d="M 452.5 119 L 464 125.5 L 462.5 126 L 452 121 L 452.5 119 Z "></path><path fill="rgb(141,123,54)" stroke="rgb(141,123,54)" stroke-width="1" opacity="1" d="M 386.5 121 L 387 122.5 L 381.5 125 L 381.5 124 L 384.5 122 L 386 122.5 L 386.5 121 Z "></path><path fill="rgb(141,123,54)" stroke="rgb(141,123,54)" stroke-width="1" opacity="1" d="M 260.5 123 L 261 125 L 259 124.5 L 260.5 123 Z "></path><path fill="rgb(141,123,54)" stroke="rgb(141,123,54)" stroke-width="1" opacity="1" d="M 379.5 125 L 380 126.5 L 373.5 132 L 373 130.5 Q 374.2 127.3 378 128 L 379.5 125 Z "></path><path fill="rgb(141,123,54)" stroke="rgb(141,123,54)" stroke-width="1" opacity="1" d="M 465.5 126 L 477 136.5 L 475.5 137 L 465 127.5 L 465.5 126 Z "></path><path fill="rgb(141,123,54)" stroke="rgb(141,123,54)" stroke-width="1" opacity="1" d="M 331.5 132 Q 333.8 131.3 333 133.5 L 336 137.5 L 334 138 L 331.5 132 Z "></path><path fill="rgb(141,123,54)" stroke="rgb(141,123,54)" stroke-width="1" opacity="1" d="M 369.5 134 L 368.5 136 L 369.5 134 Z "></path><path fill="rgb(141,123,54)" stroke="rgb(141,123,54)" stroke-width="1" opacity="1" d="M 367.5 137 L 364.5 141 L 364 139.5 L 367.5 137 Z "></path><path fill="rgb(141,123,54)" stroke="rgb(141,123,54)" stroke-width="1" opacity="1" d="M 476.5 138 L 480 140.5 L 479.5 142 L 476.5 138 Z "></path><path fill="rgb(141,123,54)" stroke="rgb(141,123,54)" stroke-width="1" opacity="1" d="M 335.5 139 L 336.5 141 L 335.5 139 Z "></path><path fill="rgb(141,123,54)" stroke="rgb(141,123,54)" stroke-width="1" opacity="1" d="M 336.5 142 Q 339.5 141.1 338 145.5 L 338.5 147 Q 335.5 147.9 337 143.5 L 336.5 142 Z "></path><path fill="rgb(141,123,54)" stroke="rgb(141,123,54)" stroke-width="1" opacity="1" d="M 362.5 142 L 363 143.5 L 360.5 147 L 360 145.5 L 362.5 142 Z "></path><path fill="rgb(141,123,54)" stroke="rgb(141,123,54)" stroke-width="1" opacity="1" d="M 480.5 143 Q 482.8 142.3 482 144.5 L 483 146.5 L 481 145.5 L 480.5 143 Z "></path><path fill="rgb(141,123,54)" stroke="rgb(141,123,54)" stroke-width="1" opacity="1" d="M 419.5 146 L 427 147.5 L 414.5 148 L 413.5 149 L 414.5 147 L 419.5 146 Z "></path><path fill="rgb(141,123,54)" stroke="rgb(141,123,54)" stroke-width="1" opacity="1" d="M 428.5 147 L 436 149 L 435.5 151 Q 434.1 148.4 429.5 149 L 428.5 147 Z "></path><path fill="rgb(141,123,54)" stroke="rgb(141,123,54)" stroke-width="1" opacity="1" d="M 338.5 148 L 340 150.5 L 340 158.5 L 341 159.5 L 341 269 L 339 268.5 L 339 151.5 L 338.5 148 Z "></path><path fill="rgb(141,123,54)" stroke="rgb(141,123,54)" stroke-width="1" opacity="1" d="M 411.5 148 L 410.5 150 L 405.5 153 L 405 151.5 L 411.5 148 Z "></path><path fill="rgb(141,123,54)" stroke="rgb(141,123,54)" stroke-width="1" opacity="1" d="M 268.5 150 L 271 150.5 L 263.5 154 L 263 152 L 268.5 150 Z "></path><path fill="rgb(141,123,54)" stroke="rgb(141,123,54)" stroke-width="1" opacity="1" d="M 276.5 150 L 280 151.5 L 278.5 152 L 276.5 150 Z "></path><path fill="rgb(141,123,54)" stroke="rgb(141,123,54)" stroke-width="1" opacity="1" d="M 437.5 150 L 443 154.5 L 441.5 155 L 437 152 L 437.5 150 Z "></path><path fill="rgb(141,123,54)" stroke="rgb(141,123,54)" stroke-width="1" opacity="1" d="M 281.5 151 L 286 153 L 285.5 155 L 281.5 151 Z "></path><path fill="rgb(141,123,54)" stroke="rgb(141,123,54)" stroke-width="1" opacity="1" d="M 403.5 152 L 404 153.5 L 397.5 159 L 403.5 152 Z "></path><path fill="rgb(141,123,54)" stroke="rgb(141,123,54)" stroke-width="1" opacity="1" d="M 261.5 153 L 262 154.5 L 256.5 159 L 261.5 153 Z "></path><path fill="rgb(141,123,54)" stroke="rgb(141,123,54)" stroke-width="1" opacity="1" d="M 355 154 L 357 154.5 Q 349.5 168 348.5 188 L 348 178.5 L 352 161.5 L 355 154 Z "></path><path fill="rgb(141,123,54)" stroke="rgb(141,123,54)" stroke-width="1" opacity="1" d="M 486.5 154 Q 489.1 153.2 488 156.5 L 490 159.5 L 488 160 L 486.5 154 Z "></path><path fill="rgb(141,123,54)" stroke="rgb(141,123,54)" stroke-width="1" opacity="1" d="M 288.5 155 L 289.5 157 L 288.5 155 Z "></path><path fill="rgb(141,123,54)" stroke="rgb(141,123,54)" stroke-width="1" opacity="1" d="M 444.5 156 L 450 164.5 L 448 163.5 L 444 157.5 L 444.5 156 Z "></path><path fill="rgb(141,123,54)" stroke="rgb(141,123,54)" stroke-width="1" opacity="1" d="M 289.5 158 L 292 159.5 L 290.5 160 L 289.5 158 Z "></path><path fill="rgb(141,123,54)" stroke="rgb(141,123,54)" stroke-width="1" opacity="1" d="M 255.5 160 L 255 161.5 Q 256.5 165.9 253.5 165 L 254 163.5 L 255.5 160 Z "></path><path fill="rgb(141,123,54)" stroke="rgb(141,123,54)" stroke-width="1" opacity="1" d="M 396.5 160 L 397 161.5 L 392.5 170 L 392 168.5 L 396.5 160 Z "></path><path fill="rgb(141,123,54)" stroke="rgb(141,123,54)" stroke-width="1" opacity="1" d="M 291.5 161 Q 293.8 160.3 293 162.5 Q 296 166.5 296 173.5 L 295 173.5 L 291.5 161 Z "></path><path fill="rgb(141,123,54)" stroke="rgb(141,123,54)" stroke-width="1" opacity="1" d="M 489.5 161 L 490.5 163 Q 487.7 163.7 489.5 161 Z "></path><path fill="rgb(141,123,54)" stroke="rgb(141,123,54)" stroke-width="1" opacity="1" d="M 490.5 164 L 492 166.5 L 490 165.5 L 490.5 164 Z "></path><path fill="rgb(141,123,54)" stroke="rgb(141,123,54)" stroke-width="1" opacity="1" d="M 252 166 L 254 166.5 L 252 167.5 L 252 166 Z "></path><path fill="rgb(141,123,54)" stroke="rgb(141,123,54)" stroke-width="1" opacity="1" d="M 449.5 166 Q 451.8 165.3 451 167.5 L 449.5 166 Z "></path><path fill="rgb(141,123,54)" stroke="rgb(141,123,54)" stroke-width="1" opacity="1" d="M 491.5 168 L 493 169.5 L 495 180.5 L 494 180.5 L 491.5 168 Z "></path><path fill="rgb(141,123,54)" stroke="rgb(141,123,54)" stroke-width="1" opacity="1" d="M 252.5 169 L 253 170.5 L 251.5 173 L 251 170.5 L 252.5 169 Z "></path><path fill="rgb(141,123,54)" stroke="rgb(141,123,54)" stroke-width="1" opacity="1" d="M 450.5 169 Q 453.5 170.6 452 176 L 449 175.5 L 451 175 L 450.5 169 Z "></path><path fill="rgb(141,123,54)" stroke="rgb(141,123,54)" stroke-width="1" opacity="1" d="M 392.5 171 L 393 172.5 L 392 175 L 448 175.5 L 391 176 Q 390 172.2 392.5 171 Z "></path><path fill="rgb(141,123,54)" stroke="rgb(141,123,54)" stroke-width="1" opacity="1" d="M 251.5 174 L 252 177.5 L 251 178.5 L 250.5 270 L 250 175.5 L 251.5 174 Z "></path><path fill="rgb(141,123,54)" stroke="rgb(141,123,54)" stroke-width="1" opacity="1" d="M 494.5 182 L 496 189.5 L 495 189.5 L 494.5 182 Z "></path><path fill="rgb(141,123,54)" stroke="rgb(141,123,54)" stroke-width="1" opacity="1" d="M 347.5 189 L 349 191.5 L 347 192 L 347.5 189 Z "></path><path fill="rgb(141,123,54)" stroke="rgb(141,123,54)" stroke-width="1" opacity="1" d="M 495.5 191 L 496 201.5 L 497 202.5 L 495.5 204 L 393 204 L 394 214.5 L 392 213.5 L 391 204.5 L 392.5 203 L 495 203 L 495.5 191 Z "></path><path fill="rgb(141,123,54)" stroke="rgb(141,123,54)" stroke-width="1" opacity="1" d="M 347.5 202 L 350 216.5 L 349 216.5 L 347.5 202 Z "></path><path fill="rgb(141,123,54)" stroke="rgb(141,123,54)" stroke-width="1" opacity="1" d="M 461.5 214 L 477 221 L 476.5 223 L 462.5 215 L 458.5 220 L 457 219.5 L 460 218 L 461.5 214 Z "></path><path fill="rgb(141,123,54)" stroke="rgb(141,123,54)" stroke-width="1" opacity="1" d="M 393 216 Q 396.3 214.7 395 219.5 L 395.5 221 L 393 216 Z "></path><path fill="rgb(141,123,54)" stroke="rgb(141,123,54)" stroke-width="1" opacity="1" d="M 349.5 218 L 352 223.5 L 350 222.5 L 349.5 218 Z "></path><path fill="rgb(141,123,54)" stroke="rgb(141,123,54)" stroke-width="1" opacity="1" d="M 456.5 221 L 458 221.5 L 444.5 236 L 444 234.5 L 448 232 L 456.5 221 Z "></path><path fill="rgb(141,123,54)" stroke="rgb(141,123,54)" stroke-width="1" opacity="1" d="M 480.5 224 Q 483.8 222.9 483 225.5 L 481.5 225 L 480.5 224 Z "></path><path fill="rgb(141,123,54)" stroke="rgb(141,123,54)" stroke-width="1" opacity="1" d="M 1410.5 224 L 1438.5 224 Q 1439.7 226.3 1444.5 225 L 1449.5 224 L 1452 224.5 L 1453 226.5 L 1453 269.5 L 1450.5 270 L 1448 269.5 L 1452 267.5 L 1452 227.5 L 1450.5 226 L 1408 226 L 1408 268.5 L 1407 268.5 L 1407 225.5 L 1409.5 225 L 1410.5 224 Z "></path><path fill="rgb(141,123,54)" stroke="rgb(141,123,54)" stroke-width="1" opacity="1" d="M 351.5 226 Q 354.1 225.2 353 228.5 L 353.5 230 Q 350.9 230.8 352 227.5 L 351.5 226 Z "></path><path fill="rgb(141,123,54)" stroke="rgb(141,123,54)" stroke-width="1" opacity="1" d="M 397.5 226 Q 399.8 225.3 399 227.5 L 405.5 235 L 399 229.5 L 397.5 226 Z "></path><path fill="rgb(141,123,54)" stroke="rgb(141,123,54)" stroke-width="1" opacity="1" d="M 484.5 226 L 494 230.5 L 492.5 231 L 484.5 227 L 484.5 226 Z "></path><path fill="rgb(141,123,54)" stroke="rgb(141,123,54)" stroke-width="1" opacity="1" d="M 353.5 231 L 356 233.5 L 358 239.5 L 356 238.5 L 353.5 231 Z "></path><path fill="rgb(141,123,54)" stroke="rgb(141,123,54)" stroke-width="1" opacity="1" d="M 493.5 234 L 494 236 L 492 235.5 L 493.5 234 Z "></path><path fill="rgb(141,123,54)" stroke="rgb(141,123,54)" stroke-width="1" opacity="1" d="M 407.5 235 L 415 239.5 L 413.5 240 L 407 237 L 407.5 235 Z "></path><path fill="rgb(141,123,54)" stroke="rgb(141,123,54)" stroke-width="1" opacity="1" d="M 442.5 235 L 443 236.5 L 436.5 240 L 437.5 238 L 442.5 235 Z "></path><path fill="rgb(141,123,54)" stroke="rgb(141,123,54)" stroke-width="1" opacity="1" d="M 491.5 237 L 493 237.5 L 491 241 L 488.5 242 L 490 239.5 L 491.5 237 Z "></path><path fill="rgb(141,123,54)" stroke="rgb(141,123,54)" stroke-width="1" opacity="1" d="M 434.5 239 L 433.5 241 L 421.5 242 L 419 240.5 L 433.5 240 L 434.5 239 Z "></path><path fill="rgb(141,123,54)" stroke="rgb(141,123,54)" stroke-width="1" opacity="1" d="M 358.5 241 Q 360.8 240.3 360 242.5 L 368.5 253 L 371.5 255 L 375 259.5 L 362 247.5 L 358.5 241 Z "></path><path fill="rgb(141,123,54)" stroke="rgb(141,123,54)" stroke-width="1" opacity="1" d="M 487.5 243 L 489 243.5 L 485.5 246 L 487.5 243 Z "></path><path fill="rgb(141,123,54)" stroke="rgb(141,123,54)" stroke-width="1" opacity="1" d="M 483.5 248 L 485 248.5 L 469.5 262 L 469 260.5 L 478 253.5 Q 477.3 251.3 479.5 252 L 483.5 248 Z "></path><path fill="rgb(141,123,54)" stroke="rgb(141,123,54)" stroke-width="1" opacity="1" d="M 295.5 258 L 296 260.5 L 295 260.5 L 295.5 258 Z "></path><path fill="rgb(141,123,54)" stroke="rgb(141,123,54)" stroke-width="1" opacity="1" d="M 376.5 259 L 383 263 L 382.5 265 L 376 260.5 L 376.5 259 Z "></path><path fill="rgb(141,123,54)" stroke="rgb(141,123,54)" stroke-width="1" opacity="1" d="M 467.5 261 L 468 263 L 464.5 264 L 464.5 263 L 467.5 261 Z "></path><path fill="rgb(141,123,54)" stroke="rgb(141,123,54)" stroke-width="1" opacity="1" d="M 384.5 264 L 387 265 L 386.5 267 L 384 266 L 384.5 264 Z "></path><path fill="rgb(141,123,54)" stroke="rgb(141,123,54)" stroke-width="1" opacity="1" d="M 459.5 265 Q 461.8 264.3 461 266.5 L 457 267.5 Q 456.3 265.3 458.5 266 L 459.5 265 Z "></path><path fill="rgb(141,123,54)" stroke="rgb(141,123,54)" stroke-width="1" opacity="1" d="M 388.5 266 Q 391.9 269.7 398 269 Q 399.1 271.7 396.5 271 L 388 268 L 388.5 266 Z "></path><path fill="rgb(141,123,54)" stroke="rgb(141,123,54)" stroke-width="1" opacity="1" d="M 455.5 267 L 456 269 L 438.5 273 L 438.5 272 Q 448.5 271 455.5 267 Z "></path><path fill="rgb(141,123,54)" stroke="rgb(141,123,54)" stroke-width="1" opacity="1" d="M 399.5 270 Q 400.7 272.3 405.5 271 L 407 272.5 L 405.5 273 L 400.5 272 L 399.5 270 Z "></path><path fill="rgb(141,123,54)" stroke="rgb(141,123,54)" stroke-width="1" opacity="1" d="M 408.5 272 L 418 273.5 L 412.5 274 L 408.5 273 L 408.5 272 Z "></path><path fill="rgb(141,123,54)" stroke="rgb(141,123,54)" stroke-width="1" opacity="1" d="M 432.5 272 L 437 272.5 Q 433.3 274.8 426.5 274 L 426.5 273 Q 431.3 274.3 432.5 272 Z "></path><path fill="rgb(176,149,58)" stroke="rgb(176,149,58)" stroke-width="1" opacity="1" d="M 48 68 L 203.5 68 L 204 68.5 L 204 106 L 151 106 L 151 268.5 L 150.5 269 L 102.5 269 L 101 267.5 L 101 106 L 48 106 L 48 68 Z "></path><path fill="rgb(176,149,58)" stroke="rgb(176,149,58)" stroke-width="1" opacity="1" d="M 207 68 L 250 68 L 250 132.5 L 251.5 133 L 254 129 Q 263.3 121 277.5 117 L 286.5 115 L 299.5 115 L 309.5 117 L 319.5 121 L 331 131.5 L 336 140.5 L 339 151.5 L 339 269 L 296 269 L 296 170.5 Q 294.2 160.8 288.5 155 L 282.5 151 L 268.5 150 Q 260.1 152.2 256 158.5 L 252 166.5 L 250 175.5 L 250 269 L 207.5 269 L 207 268.5 L 207 68 Z "></path><path fill="rgb(176,149,58)" stroke="rgb(176,149,58)" stroke-width="1" opacity="1" d="M 413.5 115 L 430.5 115 L 449.5 119 Q 466 125 476 137.5 Q 495.8 160.4 495 203 L 392.5 203 L 391 204.5 L 392 213.5 L 395 222.5 Q 398.3 230.3 404.5 235 Q 412.8 242.7 429.5 242 Q 446.3 238.8 454 226.5 L 462.5 215 L 494 231 Q 489.3 243.5 479.5 252 Q 477.3 251.3 478 253.5 L 465.5 263 L 448.5 270 L 431.5 273 L 413.5 273 L 412.5 272 L 400.5 271 Q 397.5 268 391.5 268 L 370 255 Q 371.1 252.3 368.5 253 L 362 245.5 L 354 231.5 L 349 213.5 L 348 192.5 L 348 190.5 L 350 174.5 L 357 152.5 Q 362.9 140.5 372.5 132 L 381.5 125 L 391.5 120 L 413.5 115 Z M 420 146 Q 410 148 404 152 Q 394 159 391 173 L 392 176 L 452 176 Q 452 165 447 159 Q 442 151 434 148 L 420 146 Z "></path><path fill="rgb(176,149,58)" stroke="rgb(176,149,58)" stroke-width="1" opacity="1" d="M 1408 226 L 1450.5 226 L 1452 227.5 L 1452 267.5 L 1450.5 269 L 1408 269 L 1408 226 Z "></path></svg>